<svg xmlns="http://www.w3.org/2000/svg" viewBox="0 0 203.63 69.27"><defs><style>.cls-1,.cls-2{fill:#fff;}.cls-2{fill-rule:evenodd;}</style></defs><g id="Calque_2" data-name="Calque 2"><g id="Calque_1-2" data-name="Calque 1"><path class="cls-1" d="M42.54,48.16l-6.43,21H31.74l-3.92-13c-.07-.2-.14-.46-.21-.7s-.14-.51-.21-.78c-.06.27-.13.51-.2.75s-.14.54-.21.74l-4,13H18.64l-3.37-11-1.06-3.46h0l-.06-.19-.5-1.63-.71-2.34-.62-2-.11-.36h4.38A1.33,1.33,0,0,1,17.8,49a1,1,0,0,1,.07.25l.1.37,2.76,10.54c.09.35.19.73.29,1.13a11.82,11.82,0,0,1,.21,1.26c.09-.45.2-.87.31-1.26s.23-.77.33-1.12l3.37-10.87a1.5,1.5,0,0,1,.56-.74,1.61,1.61,0,0,1,1-.35h1.43a1.82,1.82,0,0,1,1,.3,1.46,1.46,0,0,1,.57.78l3.34,10.87c.11.33.22.69.33,1.07a11.89,11.89,0,0,1,.3,1.21c.08-.42.16-.82.24-1.21s.16-.73.25-1.06l2.86-10.87a1.33,1.33,0,0,1,.54-.75,1.7,1.7,0,0,1,1-.34Z"/><path class="cls-2" d="M144.4,24.49a2.24,2.24,0,0,0-4,1.9h0l-2.2,1.27a1.06,1.06,0,0,0-.7-.24,1.18,1.18,0,0,0-.75.27h0l-13.75-8s0-.08,0-.12a1.17,1.17,0,0,0-2.34,0s0,0,0,.06l-3,1.69V18a1.16,1.16,0,0,0-.41-2.25,1.1,1.1,0,0,0-.55.15L103.12,8.06s0-.05,0-.08a1.17,1.17,0,0,0-.77-1.09V4.45a2.24,2.24,0,1,0-.8,0V6.89a1.16,1.16,0,0,0-.74,1L86.65,16a1.16,1.16,0,1,0-1,2.07v3.32l-2.81-1.63s0-.08,0-.12a1.17,1.17,0,1,0-2.34,0s0,0,0,.06L66.73,27.61a1.12,1.12,0,0,0-.64-.19,1.11,1.11,0,0,0-.77.3l-2-1.2h0a2.24,2.24,0,1,0-.42.72h0l2.07,1.21a.66.66,0,0,0,0,.15,1.16,1.16,0,0,0,.44.91l.06,0a1.18,1.18,0,0,0,.66.21h.14a1,1,0,0,0,.57-.22l20.5,12h0a2.45,2.45,0,0,0-.11.41v0a.22.22,0,0,0,0,.09,1.91,1.91,0,0,0,0,.63.76.76,0,0,0,0,.16h29.19c.06-.69.09-.62.09-.78s0-.06,0-.08a4.13,4.13,0,0,0-.13-.61v0l20.35-11.85a.67.67,0,0,0,.32.18l.05,0a.91.91,0,0,0,.41.08.93.93,0,0,0,.32-.05h.07a1.18,1.18,0,0,0,.77-1.1.83.83,0,0,0,0-.22v0l2.17-1.26h0a2.24,2.24,0,0,0,3.63-2.6ZM91.64,42s0-.07,0-.09v-.07a2.21,2.21,0,0,0-1.09-1.57,2.24,2.24,0,0,0-2.83.47h0L67.25,28.84a1.94,1.94,0,0,0,0-.24.72.72,0,0,0-.07-.33h0l13.66-7.84a1.16,1.16,0,0,0,1.64,0l3.16,1.83V34a1.14,1.14,0,0,0-.79,1.09A1.17,1.17,0,0,0,86,36.3a1.2,1.2,0,0,0,.67-.23l10.42,5.61.07,0V42Zm5.56-12.3v11l-.07,0-10-5.37a.93.93,0,0,0,0-.24A1.16,1.16,0,0,0,86.46,34V22.76l9.75,5.64a1.62,1.62,0,0,0,0,.19A1.17,1.17,0,0,0,97.2,29.74ZM99.47,42l-.18-.1,0,0-1-.53L98,41.21V29.54a1.16,1.16,0,0,0-.66-2.12,1.1,1.1,0,0,0-.72.28L86.46,21.83V18A1.15,1.15,0,0,0,87.21,17a1.07,1.07,0,0,0-.06-.32l13.88-8a1.15,1.15,0,0,0,.53.42V32.52a2.24,2.24,0,0,0,0,4.41V42Zm2.89,0V36.93a2.24,2.24,0,0,0,0-4.41V9.08a1.21,1.21,0,0,0,.43-.27l13.4,7.75a1.35,1.35,0,0,0-.08.4,1.16,1.16,0,0,0,.8,1.09v3.78l-10.09,5.79a1.14,1.14,0,0,0-1.79,1,1.15,1.15,0,0,0,.93,1.12V41.24l-.22.13-.89.53,0,0-.16.1Zm14.55-8a1.15,1.15,0,0,0-.8,1.09,1,1,0,0,0,0,.18h0l-9.32,5.42-.06,0V29.61a1.16,1.16,0,0,0,.63-1,1.23,1.23,0,0,0-.07-.32l9.6-5.51Zm-1,6.6h0a2.22,2.22,0,0,0-2.81-.45A2.28,2.28,0,0,0,112,42a.21.21,0,0,0,0,.08h-5.25v-.33l.06,0L116.53,36h0a1.17,1.17,0,1,0,1.16-2V22.31L121,20.43a1.16,1.16,0,0,0,1.64,0l13.69,7.92h0a.71.71,0,0,0,0,.21.86.86,0,0,0,0,.16Z"/><path class="cls-1" d="M61.19,66.35a9.2,9.2,0,0,1-1.37,1.2,8,8,0,0,1-1.62.92,9.26,9.26,0,0,1-1.93.58,11.05,11.05,0,0,1-2.31.22,9.86,9.86,0,0,1-3.85-.74,8.49,8.49,0,0,1-3-2.09,9.37,9.37,0,0,1-2-3.27,12.2,12.2,0,0,1-.7-4.26,11.79,11.79,0,0,1,.72-4.2,9.52,9.52,0,0,1,2-3.26,9,9,0,0,1,3.13-2.12,10.43,10.43,0,0,1,4-.75,11.49,11.49,0,0,1,2,.16,8.83,8.83,0,0,1,1.7.48,7.55,7.55,0,0,1,1.5.76A12,12,0,0,1,61,51l-.44.64a.42.42,0,0,1-.36.17.62.62,0,0,1-.33-.15l-.5-.37q-.32-.22-.75-.48a6.19,6.19,0,0,0-1-.49A8.7,8.7,0,0,0,56.15,50a9.65,9.65,0,0,0-1.79-.15,8.9,8.9,0,0,0-3.39.63,7.56,7.56,0,0,0-2.65,1.82,8.17,8.17,0,0,0-1.74,2.86A10.63,10.63,0,0,0,46,58.91a11.21,11.21,0,0,0,.61,3.84,8.41,8.41,0,0,0,1.7,2.85,7.42,7.42,0,0,0,2.57,1.78,8.06,8.06,0,0,0,3.21.63A11.13,11.13,0,0,0,56,67.86a8,8,0,0,0,1.57-.42,7.34,7.34,0,0,0,1.33-.71,9.52,9.52,0,0,0,1.21-1l.14-.09a.24.24,0,0,1,.15,0,.35.35,0,0,1,.24.1Z"/><path class="cls-1" d="M83.14,54.68a9.43,9.43,0,0,0-2-3.27,8.4,8.4,0,0,0-3-2.09,10,10,0,0,0-3.93-.74,10.07,10.07,0,0,0-3.9.74,8.85,8.85,0,0,0-3.05,2.1,9.38,9.38,0,0,0-2,3.26,13,13,0,0,0,0,8.49,9.47,9.47,0,0,0,2,3.26,8.67,8.67,0,0,0,3.05,2.08,10.73,10.73,0,0,0,7.83,0,8.63,8.63,0,0,0,3-2.08,9.47,9.47,0,0,0,2-3.26,13.22,13.22,0,0,0,0-8.49Zm-1.4,8a8.18,8.18,0,0,1-1.66,2.85,6.8,6.8,0,0,1-2.56,1.78,9.17,9.17,0,0,1-6.63,0,7.08,7.08,0,0,1-2.57-1.78,8,8,0,0,1-1.67-2.85,12.4,12.4,0,0,1,0-7.62,8,8,0,0,1,1.67-2.85,7.13,7.13,0,0,1,2.57-1.8,9.17,9.17,0,0,1,6.63,0,6.84,6.84,0,0,1,2.56,1.8,8.09,8.09,0,0,1,1.66,2.85,12.8,12.8,0,0,1,0,7.62Z"/><path class="cls-1" d="M96.23,60.64,96,60.37a2.53,2.53,0,0,0-.61-.65,8.3,8.3,0,0,0,2.39-.61,6,6,0,0,0,1.8-1.18,4.93,4.93,0,0,0,1.16-1.67,5.2,5.2,0,0,0,.39-1.79c0-.11,0-.2,0-.31a4.65,4.65,0,0,0-1.73-3.92C98.26,49.33,96.53,49,94.18,49H89.11V69.2H90.3V60.07h2.82a2.17,2.17,0,0,1,.87.06,1.17,1.17,0,0,1,.53.35l.29.37L101,68.71a1.71,1.71,0,0,0,.33.33.87.87,0,0,0,.39.16H103Zm-2.25-1H90.26V50.15h4.41a6.27,6.27,0,0,1,3.63,1,3.53,3.53,0,0,1,1.41,3.1c0,.18,0,.36,0,.52v.08a4.7,4.7,0,0,1-.39,2,4.58,4.58,0,0,1-1.13,1.54,5.48,5.48,0,0,1-1.79,1A7.48,7.48,0,0,1,94,59.68Z"/><path class="cls-1" d="M117.65,50.44c-1.21-1-3-1.48-5.37-1.48H107V69.21h1.59V60.87h3.71a9.28,9.28,0,0,0,3-.44,6.57,6.57,0,0,0,2.26-1.24A5.4,5.4,0,0,0,119,57.27a6,6,0,0,0,.49-2.42A5.47,5.47,0,0,0,117.65,50.44Zm0,6.32a4.66,4.66,0,0,1-1.13,1.55,5.29,5.29,0,0,1-1.79,1,7.22,7.22,0,0,1-2.41.36h-3.71V50.15h3.71a6.38,6.38,0,0,1,4.28,1.16,4.33,4.33,0,0,1,1.44,3.5A4.85,4.85,0,0,1,117.61,56.76Z"/><path class="cls-1" d="M10.49,48.16V61.49c0,.21,0,.41,0,.62A11.09,11.09,0,0,1,10,64.66a6.71,6.71,0,0,1-1.35,2.45A6.05,6.05,0,0,1,6.4,68.7a8.06,8.06,0,0,1-3.13.57c-.55,0-1.09,0-1.61-.09A12.86,12.86,0,0,1,0,68.89l.26-2.81a.79.79,0,0,1,.29-.6,1.06,1.06,0,0,1,.74-.23,3.1,3.1,0,0,1,.6.08,4.16,4.16,0,0,0,.85.07A3.53,3.53,0,0,0,4,65.21a1.93,1.93,0,0,0,.86-.64,3,3,0,0,0,.42-1.18,8.3,8.3,0,0,0,.08-1.8V48.16Z"/><path class="cls-1" d="M10.49,48.16V59.9c0,.21,0,.42,0,.62a9.23,9.23,0,0,1-1.18.08,9.06,9.06,0,0,1-4-.9V48.16Z"/><path class="cls-1" d="M10.49,48.16v8.32a9.11,9.11,0,0,1-4.78,1.34H5.33V48.16Z"/><path class="cls-1" d="M10.49,48.16v8A9,9,0,0,1,5.33,54V48.16Z"/><path class="cls-1" d="M60.62,65.73l.57.62a9.2,9.2,0,0,1-1.37,1.2,8,8,0,0,1-1.62.92,9.26,9.26,0,0,1-1.93.58,11.05,11.05,0,0,1-2.31.22,9.86,9.86,0,0,1-3.85-.74,8.49,8.49,0,0,1-3-2.09,9.37,9.37,0,0,1-2-3.27,12.2,12.2,0,0,1-.7-4.26,11.79,11.79,0,0,1,.72-4.2,9.52,9.52,0,0,1,2-3.26,9,9,0,0,1,3.13-2.12,10.43,10.43,0,0,1,4-.75,11.49,11.49,0,0,1,2,.16,8.83,8.83,0,0,1,1.7.48,7.55,7.55,0,0,1,1.5.76A12,12,0,0,1,61,51l-.44.64a.42.42,0,0,1-.36.17.62.62,0,0,1-.33-.15l-.5-.37q-.32-.22-.75-.48a6.19,6.19,0,0,0-1-.49A8.7,8.7,0,0,0,56.15,50a9.65,9.65,0,0,0-1.79-.15,8.9,8.9,0,0,0-3.39.63,7.56,7.56,0,0,0-2.65,1.82,8.17,8.17,0,0,0-1.74,2.86A10.63,10.63,0,0,0,46,58.91a11.21,11.21,0,0,0,.61,3.84,8.41,8.41,0,0,0,1.7,2.85,7.42,7.42,0,0,0,2.57,1.78,8.06,8.06,0,0,0,3.21.63A11.13,11.13,0,0,0,56,67.86a8,8,0,0,0,1.57-.42,7.34,7.34,0,0,0,1.33-.71,9.52,9.52,0,0,0,1.21-1l.14-.09a.24.24,0,0,1,.15,0A.35.35,0,0,1,60.62,65.73Z"/><path class="cls-1" d="M83.14,54.68a9.43,9.43,0,0,0-2-3.27,8.4,8.4,0,0,0-3-2.09,10,10,0,0,0-3.93-.74,10.07,10.07,0,0,0-3.9.74,8.85,8.85,0,0,0-3.05,2.1,9.38,9.38,0,0,0-2,3.26,13,13,0,0,0,0,8.49,9.47,9.47,0,0,0,2,3.26,8.67,8.67,0,0,0,3.05,2.08,10.73,10.73,0,0,0,7.83,0,8.63,8.63,0,0,0,3-2.08,9.47,9.47,0,0,0,2-3.26,13.22,13.22,0,0,0,0-8.49Zm-1.4,8a8.18,8.18,0,0,1-1.66,2.85,6.8,6.8,0,0,1-2.56,1.78,9.17,9.17,0,0,1-6.63,0,7.08,7.08,0,0,1-2.57-1.78,8,8,0,0,1-1.67-2.85,12.4,12.4,0,0,1,0-7.62,8,8,0,0,1,1.67-2.85,7.13,7.13,0,0,1,2.57-1.8,9.17,9.17,0,0,1,6.63,0,6.84,6.84,0,0,1,2.56,1.8,8.09,8.09,0,0,1,1.66,2.85,12.8,12.8,0,0,1,0,7.62Z"/><path class="cls-1" d="M96.23,60.64,96,60.37a2.53,2.53,0,0,0-.61-.65,8.3,8.3,0,0,0,2.39-.61,6,6,0,0,0,1.8-1.18,4.93,4.93,0,0,0,1.16-1.67,5.2,5.2,0,0,0,.39-1.79c0-.11,0-.2,0-.31a4.65,4.65,0,0,0-1.73-3.92C98.26,49.33,96.53,49,94.18,49H89.11V69.2H90.3V60.07h2.82a2.17,2.17,0,0,1,.87.06,1.17,1.17,0,0,1,.53.35l.29.37L101,68.71a1.71,1.71,0,0,0,.33.33.87.87,0,0,0,.39.16H103Zm-2.25-1H90.26V50.15h4.41a6.27,6.27,0,0,1,3.63,1,3.53,3.53,0,0,1,1.41,3.1c0,.18,0,.36,0,.52v.08a4.7,4.7,0,0,1-.39,2,4.58,4.58,0,0,1-1.13,1.54,5.48,5.48,0,0,1-1.79,1A7.48,7.48,0,0,1,94,59.68Z"/><path class="cls-1" d="M117.65,50.44c-1.21-1-3-1.48-5.37-1.48H107V69.21h1.59V60.87h3.71a9.28,9.28,0,0,0,3-.44,6.57,6.57,0,0,0,2.26-1.24A5.4,5.4,0,0,0,119,57.27a6,6,0,0,0,.49-2.42A5.47,5.47,0,0,0,117.65,50.44Zm0,6.32a4.66,4.66,0,0,1-1.13,1.55,5.29,5.29,0,0,1-1.79,1,7.22,7.22,0,0,1-2.41.36h-3.71V50.15h3.71a6.38,6.38,0,0,1,4.28,1.16,4.33,4.33,0,0,1,1.44,3.5A4.85,4.85,0,0,1,117.61,56.76Z"/><path class="cls-1" d="M101.14,54.47a5.22,5.22,0,0,0-1.81-4c-1.16-1-2.87-1.47-5.15-1.5h-5.5V69.2h1.58V60.87H94l.83,0a8,8,0,0,0,1.42-.21,6.41,6.41,0,0,0,.75-.21,6.66,6.66,0,0,0,2.26-1.24,5.49,5.49,0,0,0,1.41-1.91,5.78,5.78,0,0,0,.5-2.43C101.15,54.72,101.15,54.59,101.14,54.47ZM94,59.68H90.26V50.15h4.41a6.27,6.27,0,0,1,3.63,1,3.53,3.53,0,0,1,1.41,3.1c0,.18,0,.36,0,.52v.08a4.7,4.7,0,0,1-.39,2,4.58,4.58,0,0,1-1.13,1.54,5.48,5.48,0,0,1-1.79,1A7.48,7.48,0,0,1,94,59.68Z"/><path class="cls-1" d="M124.88,69.15V60.29h2.83a4.93,4.93,0,0,1,1.41.16,2.64,2.64,0,0,1,1,.45,1.82,1.82,0,0,1,.56.73,2.47,2.47,0,0,1,.19,1,1.9,1.9,0,0,1-.11.63,1.63,1.63,0,0,1-.31.56,2.17,2.17,0,0,1-.52.47,2.73,2.73,0,0,1-.73.33,2.74,2.74,0,0,1,1.47.7,1.83,1.83,0,0,1,.49,1.34,2.45,2.45,0,0,1-.21,1,2.14,2.14,0,0,1-.6.8,2.86,2.86,0,0,1-1,.52,4.39,4.39,0,0,1-1.32.18Zm1.2-4.89h1.59a2.93,2.93,0,0,0,.88-.12,1.75,1.75,0,0,0,.61-.31,1.22,1.22,0,0,0,.36-.48,1.48,1.48,0,0,0,.12-.61,1.35,1.35,0,0,0-.47-1.14,2.32,2.32,0,0,0-1.46-.37h-1.63Zm0,.85V68.2H128a2.84,2.84,0,0,0,.88-.12,1.69,1.69,0,0,0,.61-.33,1.37,1.37,0,0,0,.35-.51,1.93,1.93,0,0,0,.11-.65,1.31,1.31,0,0,0-.48-1.08,2.28,2.28,0,0,0-1.47-.4Z"/><path class="cls-1" d="M134.09,68.14h3.83v1h-5V60.29h1.2Z"/><path class="cls-1" d="M147,64.72a5.13,5.13,0,0,1-.32,1.83,4.12,4.12,0,0,1-.89,1.43,3.91,3.91,0,0,1-1.38.93,4.63,4.63,0,0,1-1.78.33,4.71,4.71,0,0,1-1.79-.33,4.1,4.1,0,0,1-1.38-.93,4.27,4.27,0,0,1-.89-1.43,5.56,5.56,0,0,1,0-3.66,4.17,4.17,0,0,1,.89-1.43,4.13,4.13,0,0,1,1.38-.94,4.72,4.72,0,0,1,1.79-.34,4.63,4.63,0,0,1,1.78.34,3.94,3.94,0,0,1,1.38.94,4,4,0,0,1,.89,1.43A5.17,5.17,0,0,1,147,64.72Zm-1.23,0a4.71,4.71,0,0,0-.22-1.46,3,3,0,0,0-.63-1.1,3,3,0,0,0-1-.7,3.33,3.33,0,0,0-1.29-.24,3.38,3.38,0,0,0-1.3.24,2.92,2.92,0,0,0-1,.7,2.77,2.77,0,0,0-.63,1.1,4.75,4.75,0,0,0,0,2.92,2.91,2.91,0,0,0,.63,1.1,2.76,2.76,0,0,0,1,.69,3.58,3.58,0,0,0,1.3.24,3.53,3.53,0,0,0,1.29-.24,2.8,2.8,0,0,0,1-.69,3.2,3.2,0,0,0,.63-1.1A4.71,4.71,0,0,0,145.76,64.72Z"/><path class="cls-1" d="M154.88,67.32a.29.29,0,0,1,.18.08l.47.51a3.83,3.83,0,0,1-1.32,1,4.59,4.59,0,0,1-1.87.35,4.42,4.42,0,0,1-1.74-.33,3.71,3.71,0,0,1-1.33-.93,4.37,4.37,0,0,1-.86-1.43,5.42,5.42,0,0,1-.3-1.84,5,5,0,0,1,.33-1.84,4.16,4.16,0,0,1,.91-1.43,3.9,3.9,0,0,1,1.41-.93,4.78,4.78,0,0,1,1.81-.34,4.3,4.3,0,0,1,1.68.31,4.21,4.21,0,0,1,1.26.82l-.39.55a.32.32,0,0,1-.1.1.25.25,0,0,1-.16,0,.41.41,0,0,1-.17,0l-.21-.15-.3-.19a2.38,2.38,0,0,0-.39-.18,3.07,3.07,0,0,0-.53-.15,4.69,4.69,0,0,0-.7-.06,3.29,3.29,0,0,0-1.31.25,2.74,2.74,0,0,0-1,.7,3.09,3.09,0,0,0-.67,1.1,4.12,4.12,0,0,0-.24,1.45,4.29,4.29,0,0,0,.24,1.48,3.6,3.6,0,0,0,.65,1.1,2.79,2.79,0,0,0,1,.68,3,3,0,0,0,1.21.23,5.14,5.14,0,0,0,.71,0,2.68,2.68,0,0,0,.59-.15,2.34,2.34,0,0,0,.5-.25,4.55,4.55,0,0,0,.47-.36A.28.28,0,0,1,154.88,67.32Z"/><path class="cls-1" d="M158.42,64.17h.46a1,1,0,0,0,.37-.06.79.79,0,0,0,.26-.2l3-3.34a.75.75,0,0,1,.27-.22.61.61,0,0,1,.32-.06h1l-3.38,3.81a1.8,1.8,0,0,1-.24.24,1.38,1.38,0,0,1-.25.17.83.83,0,0,1,.31.16,2.44,2.44,0,0,1,.27.28l3.53,4.2h-1l-.2,0-.14,0a.38.38,0,0,1-.11-.08l-.1-.1-3.06-3.52a.79.79,0,0,0-.13-.13.6.6,0,0,0-.13-.09.76.76,0,0,0-.18-.06h-.8v4.06h-1.19V60.29h1.19Z"/><path class="cls-1" d="M171.25,66.82a.45.45,0,0,1,.16,0,.26.26,0,0,1,.13.09l.84.87A3.41,3.41,0,0,1,171,68.88a4.63,4.63,0,0,1-1.94.37,4.68,4.68,0,0,1-1.84-.35,4,4,0,0,1-1.38-1,4.11,4.11,0,0,1-.87-1.46,5.4,5.4,0,0,1-.3-1.83,4.62,4.62,0,0,1,.35-1.85,4.22,4.22,0,0,1,1-1.46,4.27,4.27,0,0,1,1.49-.95,5.15,5.15,0,0,1,1.91-.34,4.23,4.23,0,0,1,1,.09,4.32,4.32,0,0,1,.84.24,5.46,5.46,0,0,1,.72.38,3.41,3.41,0,0,1,.57.49l-.7.94-.16.16a.4.4,0,0,1-.26.07.46.46,0,0,1-.21,0,1.57,1.57,0,0,1-.21-.12l-.24-.15a2.39,2.39,0,0,0-.32-.16,2.87,2.87,0,0,0-.43-.12,3.1,3.1,0,0,0-.57-.05,2.71,2.71,0,0,0-1,.2,2.46,2.46,0,0,0-.81.58,2.61,2.61,0,0,0-.52.91,3.42,3.42,0,0,0-.19,1.19,3.61,3.61,0,0,0,.19,1.23,2.6,2.6,0,0,0,.51.91,2.31,2.31,0,0,0,.76.56,2.24,2.24,0,0,0,.93.19,4.17,4.17,0,0,0,.52,0,2.72,2.72,0,0,0,.43-.09,2.76,2.76,0,0,0,.39-.18,2.11,2.11,0,0,0,.36-.27.75.75,0,0,1,.17-.1A.33.33,0,0,1,171.25,66.82Z"/><path class="cls-1" d="M181.2,69.15h-2.11V65.34h-3.66v3.81h-2.1v-9h2.1V63.9h3.66V60.14h2.11Z"/><path class="cls-1" d="M191.07,69.15h-1.62A.73.73,0,0,1,189,69a.58.58,0,0,1-.24-.32l-.53-1.57H184.8l-.53,1.57A.69.69,0,0,1,184,69a.72.72,0,0,1-.44.14H182l3.49-9h2.14Zm-5.79-3.45h2.46l-.82-2.47c-.06-.15-.12-.34-.19-.55s-.15-.45-.22-.69c-.06.25-.13.49-.2.7s-.14.4-.2.56Z"/><path class="cls-1" d="M194.09,69.15H192v-9h2.1Z"/><path class="cls-1" d="M197.09,60.15a.47.47,0,0,1,.17,0,.71.71,0,0,1,.14.1l.16.17,4.28,5.41c0-.17,0-.34,0-.5s0-.32,0-.47V60.14h1.84v9h-1.09a1,1,0,0,1-.4-.08.69.69,0,0,1-.33-.27l-4.25-5.37,0,.46c0,.15,0,.3,0,.43v4.83h-1.84v-9h1.33Z"/><path class="cls-1" d="M10.53,43.53a2.64,2.64,0,1,1-2.64-2.64A2.64,2.64,0,0,1,10.53,43.53Z"/><path class="cls-1" d="M131.09,54a2.79,2.79,0,0,1-.26,1.23,2.63,2.63,0,0,1-.7.88,3.3,3.3,0,0,1-1,.53,4.75,4.75,0,0,1-1.27.17,4.68,4.68,0,0,1-.86-.07,4.9,4.9,0,0,1-.69-.18,2.62,2.62,0,0,1-.5-.23,1.09,1.09,0,0,1-.29-.2.53.53,0,0,1-.13-.26,2.68,2.68,0,0,1,0-.48,3.16,3.16,0,0,1,0-.35,1.19,1.19,0,0,1,0-.24.23.23,0,0,1,.08-.12.19.19,0,0,1,.12,0,.56.56,0,0,1,.27.11,4.3,4.3,0,0,0,.45.25,3.69,3.69,0,0,0,.65.25,3,3,0,0,0,.88.11,2.12,2.12,0,0,0,.59-.07,1.41,1.41,0,0,0,.44-.23,1,1,0,0,0,.28-.35,1.19,1.19,0,0,0,.09-.47.83.83,0,0,0-.16-.52,1.6,1.6,0,0,0-.43-.38,4.15,4.15,0,0,0-.6-.32l-.69-.31a7.73,7.73,0,0,1-.69-.37,2.84,2.84,0,0,1-.59-.5,2.18,2.18,0,0,1-.43-.69,2.71,2.71,0,0,1,.07-2.06,2.2,2.2,0,0,1,.64-.8,2.61,2.61,0,0,1,.94-.48,4.26,4.26,0,0,1,1.15-.16,4.46,4.46,0,0,1,.63,0,4.68,4.68,0,0,1,.59.13,3.69,3.69,0,0,1,.48.19.8.8,0,0,1,.28.17.47.47,0,0,1,.1.11.85.85,0,0,1,.06.33c0,.08,0,.18,0,.29s0,.25,0,.34a1.2,1.2,0,0,1,0,.23.27.27,0,0,1-.07.13.21.21,0,0,1-.12,0,.58.58,0,0,1-.23-.1l-.41-.21a4.3,4.3,0,0,0-.55-.2,2.5,2.5,0,0,0-.69-.1,1.52,1.52,0,0,0-.51.08,1,1,0,0,0-.37.19.84.84,0,0,0-.22.31.94.94,0,0,0-.07.37.8.8,0,0,0,.16.51,1.63,1.63,0,0,0,.43.39,4.94,4.94,0,0,0,.61.31l.7.31c.24.11.47.24.7.37a3.25,3.25,0,0,1,.61.5,2.68,2.68,0,0,1,.43.69A2.36,2.36,0,0,1,131.09,54Z"/><path class="cls-1" d="M140.42,52.16a6.66,6.66,0,0,1-.27,2,3.9,3.9,0,0,1-.82,1.47,3.52,3.52,0,0,1-1.33.93,5,5,0,0,1-1.84.31,5.52,5.52,0,0,1-1.81-.27,3.11,3.11,0,0,1-1.28-.82,3.55,3.55,0,0,1-.77-1.41,7.1,7.1,0,0,1-.25-2,6.38,6.38,0,0,1,.27-1.93,3.84,3.84,0,0,1,.81-1.46,3.67,3.67,0,0,1,1.34-.93,5,5,0,0,1,1.85-.32,5.31,5.31,0,0,1,1.77.27,3.14,3.14,0,0,1,1.29.82,3.65,3.65,0,0,1,.78,1.4A6.91,6.91,0,0,1,140.42,52.16Zm-1.89.1a6.19,6.19,0,0,0-.11-1.27,2.6,2.6,0,0,0-.37-1,1.78,1.78,0,0,0-.7-.63,2.35,2.35,0,0,0-1.09-.22,2.22,2.22,0,0,0-1.11.25,2,2,0,0,0-.72.67,2.63,2.63,0,0,0-.38,1,5.55,5.55,0,0,0-.12,1.18,7.25,7.25,0,0,0,.11,1.3,3,3,0,0,0,.37,1,1.74,1.74,0,0,0,.7.62,2.4,2.4,0,0,0,1.1.22,2.22,2.22,0,0,0,1.11-.25,2,2,0,0,0,.72-.67,2.75,2.75,0,0,0,.38-1A5.82,5.82,0,0,0,138.53,52.26Z"/><path class="cls-1" d="M146.79,55.93a1.78,1.78,0,0,1,0,.35.71.71,0,0,1-.05.23.37.37,0,0,1-.08.14.28.28,0,0,1-.12,0h-4.06a.53.53,0,0,1-.37-.14.52.52,0,0,1-.16-.43v-8a.21.21,0,0,1,0-.13.42.42,0,0,1,.14-.09,1.43,1.43,0,0,1,.28,0l.43,0,.44,0a1.19,1.19,0,0,1,.27,0,.49.49,0,0,1,.15.09.21.21,0,0,1,.05.13V55.2h2.78a.28.28,0,0,1,.12,0,.36.36,0,0,1,.08.12.71.71,0,0,1,.05.23A1.72,1.72,0,0,1,146.79,55.93Z"/><path class="cls-1" d="M154.73,53.39a4.18,4.18,0,0,1-.24,1.46,2.77,2.77,0,0,1-.7,1.08,3,3,0,0,1-1.15.68,4.78,4.78,0,0,1-1.58.23,4.92,4.92,0,0,1-1.49-.21A2.73,2.73,0,0,1,147.75,55a4,4,0,0,1-.25-1.48V48.09a.28.28,0,0,1,0-.13.49.49,0,0,1,.15-.09,1.43,1.43,0,0,1,.28,0l.44,0,.43,0a1.46,1.46,0,0,1,.27,0,.49.49,0,0,1,.15.09.2.2,0,0,1,0,.13v5.22a2.77,2.77,0,0,0,.13.91,1.74,1.74,0,0,0,.37.64,1.5,1.5,0,0,0,.58.38,2.28,2.28,0,0,0,.76.13,2.24,2.24,0,0,0,.76-.13,1.73,1.73,0,0,0,.57-.38,1.7,1.7,0,0,0,.35-.62,2.37,2.37,0,0,0,.13-.83V48.09a.2.2,0,0,1,0-.13.49.49,0,0,1,.15-.09,1.31,1.31,0,0,1,.27,0l.44,0,.42,0a1.19,1.19,0,0,1,.27,0,.49.49,0,0,1,.15.09.28.28,0,0,1,0,.13Z"/><path class="cls-1" d="M162.54,48.58a3.28,3.28,0,0,1,0,.34.9.9,0,0,1-.05.22.33.33,0,0,1-.09.13.15.15,0,0,1-.11,0h-2.22v7.13a.16.16,0,0,1,0,.12.27.27,0,0,1-.15.09l-.27.06-.44,0-.43,0-.28-.06a.27.27,0,0,1-.15-.09.16.16,0,0,1,0-.12V49.31H156a.15.15,0,0,1-.11,0,.32.32,0,0,1-.08-.13.85.85,0,0,1-.06-.22c0-.1,0-.21,0-.34s0-.25,0-.35a.94.94,0,0,1,.06-.23.23.23,0,0,1,.08-.12.15.15,0,0,1,.11,0h6.24a.15.15,0,0,1,.11,0s.06.06.09.12a1,1,0,0,1,.05.23A3.32,3.32,0,0,1,162.54,48.58Z"/><path class="cls-1" d="M165.39,56.44a.17.17,0,0,1,0,.12.27.27,0,0,1-.15.09l-.27.06-.44,0-.43,0-.28-.06a.24.24,0,0,1-.14-.09.17.17,0,0,1,0-.12V48.09a.21.21,0,0,1,0-.13.49.49,0,0,1,.15-.09,1.46,1.46,0,0,1,.27,0l.43,0,.44,0a1.31,1.31,0,0,1,.27,0,.49.49,0,0,1,.15.09.21.21,0,0,1,0,.13Z"/><path class="cls-1" d="M175.27,52.16a6.66,6.66,0,0,1-.27,2,4,4,0,0,1-.82,1.47,3.52,3.52,0,0,1-1.33.93,5,5,0,0,1-1.85.31,5.5,5.5,0,0,1-1.8-.27,3.11,3.11,0,0,1-1.28-.82,3.55,3.55,0,0,1-.77-1.41,7.1,7.1,0,0,1-.25-2,6.38,6.38,0,0,1,.27-1.93,3.84,3.84,0,0,1,.81-1.46,3.67,3.67,0,0,1,1.34-.93,5,5,0,0,1,1.85-.32,5.31,5.31,0,0,1,1.77.27,3.14,3.14,0,0,1,1.29.82,3.65,3.65,0,0,1,.78,1.4A6.91,6.91,0,0,1,175.27,52.16Zm-1.89.1a6.19,6.19,0,0,0-.11-1.27,2.6,2.6,0,0,0-.37-1,1.78,1.78,0,0,0-.7-.63,2.38,2.38,0,0,0-1.09-.22,2.22,2.22,0,0,0-1.11.25,2,2,0,0,0-.72.67,2.63,2.63,0,0,0-.38,1,5.55,5.55,0,0,0-.12,1.18,7.25,7.25,0,0,0,.11,1.3,3,3,0,0,0,.37,1,1.68,1.68,0,0,0,.7.62,2.4,2.4,0,0,0,1.1.22,2.22,2.22,0,0,0,1.11-.25,1.9,1.9,0,0,0,.71-.67,2.59,2.59,0,0,0,.39-1A5.82,5.82,0,0,0,173.38,52.26Z"/><path class="cls-1" d="M184.08,56.06a.64.64,0,0,1-.06.28.62.62,0,0,1-.15.2.43.43,0,0,1-.22.12.73.73,0,0,1-.25,0h-.77a1.64,1.64,0,0,1-.41-.05.83.83,0,0,1-.32-.17,2,2,0,0,1-.29-.34c-.09-.15-.19-.33-.3-.56l-2.2-4.14c-.13-.24-.26-.51-.39-.79s-.25-.57-.36-.83h0c0,.32,0,.65,0,1s0,.66,0,1v4.62a.2.2,0,0,1,0,.13.29.29,0,0,1-.13.09l-.25.06-.4,0-.4,0-.24-.06a.31.31,0,0,1-.12-.09.2.2,0,0,1,0-.13v-8A.59.59,0,0,1,177,48a.66.66,0,0,1,.46-.16h1a1.83,1.83,0,0,1,.44,0,.86.86,0,0,1,.32.15,1.07,1.07,0,0,1,.26.29,3.41,3.41,0,0,1,.26.44L181.39,52l.3.57.28.57.27.56c.08.18.17.36.25.55h0c0-.32,0-.66,0-1s0-.68,0-1V48.11a.2.2,0,0,1,0-.13.36.36,0,0,1,.13-.09.83.83,0,0,1,.26-.06l.4,0,.39,0a.7.7,0,0,1,.24.06A.31.31,0,0,1,184,48a.28.28,0,0,1,0,.13Z"/><path class="cls-1" d="M191.25,54a2.79,2.79,0,0,1-.26,1.23,2.65,2.65,0,0,1-.71.88,3.09,3.09,0,0,1-1,.53,4.7,4.7,0,0,1-1.27.17,4.57,4.57,0,0,1-.85-.07,4.9,4.9,0,0,1-.69-.18,3.08,3.08,0,0,1-.51-.23,1.3,1.3,0,0,1-.29-.2.45.45,0,0,1-.12-.26,2,2,0,0,1,0-.48c0-.14,0-.26,0-.35a1.11,1.11,0,0,1,.05-.24.23.23,0,0,1,.08-.12.16.16,0,0,1,.12,0,.65.65,0,0,1,.27.11,4.3,4.3,0,0,0,.45.25,3.69,3.69,0,0,0,.65.25,2.94,2.94,0,0,0,.88.11,2.17,2.17,0,0,0,.59-.07,1.41,1.41,0,0,0,.44-.23.85.85,0,0,0,.27-.35,1,1,0,0,0,.1-.47.83.83,0,0,0-.16-.52,1.77,1.77,0,0,0-.43-.38,5.57,5.57,0,0,0-.6-.32l-.69-.31a5.7,5.7,0,0,1-.69-.37,3.19,3.19,0,0,1-.6-.5,2.38,2.38,0,0,1-.43-.69,2.78,2.78,0,0,1,.08-2.06,2.18,2.18,0,0,1,.63-.8,2.7,2.7,0,0,1,.94-.48,4.39,4.39,0,0,1,1.16-.16,4.46,4.46,0,0,1,.63,0,4.52,4.52,0,0,1,.58.13,3.35,3.35,0,0,1,.49.19.91.91,0,0,1,.28.17.39.39,0,0,1,.09.11.4.4,0,0,1,0,.13s0,.12,0,.2V49a3.33,3.33,0,0,1,0,.34.75.75,0,0,1,0,.23.4.4,0,0,1-.07.13.21.21,0,0,1-.12,0,.67.67,0,0,1-.24-.1l-.4-.21a4.48,4.48,0,0,0-.56-.2,2.44,2.44,0,0,0-.69-.1,1.6,1.6,0,0,0-.51.08,1,1,0,0,0-.36.19.74.74,0,0,0-.22.31.94.94,0,0,0-.07.37.8.8,0,0,0,.16.51,1.49,1.49,0,0,0,.43.39,4.94,4.94,0,0,0,.61.31l.7.31c.23.11.46.24.69.37a3,3,0,0,1,.61.5,2.43,2.43,0,0,1,.43.69A2.36,2.36,0,0,1,191.25,54Z"/></g></g></svg>