<svg xmlns="http://www.w3.org/2000/svg" viewBox="0 0 198.49 73.27"><defs><style>.cls-1,.cls-2,.cls-3{fill:#8000ff;}.cls-2{fill-rule:evenodd;}.cls-3{font-size:12px;font-family:MyriadPro-Regular, Myriad Pro;}.cls-4{letter-spacing:-0.04em;}.cls-5{letter-spacing:0em;}.cls-6{letter-spacing:-0.02em;}.cls-7{font-size:11.27px;fill:#1f005b;font-family:Calibri;}.cls-8{letter-spacing:-0.02em;}</style></defs><g id="Calque_2" data-name="Calque 2"><g id="Calque_1-2" data-name="Calque 1"><path class="cls-1" d="M42.54,48.16l-6.43,21H31.74l-3.92-13c-.07-.2-.14-.46-.21-.7s-.14-.51-.21-.78c-.06.27-.13.51-.2.75s-.14.54-.21.74l-4,13H18.64l-3.37-11-1.06-3.46h0l-.06-.19-.5-1.63-.71-2.34-.62-2-.11-.36h4.38A1.33,1.33,0,0,1,17.8,49a1,1,0,0,1,.07.25l.1.37,2.76,10.54c.09.35.19.73.29,1.13a11.82,11.82,0,0,1,.21,1.26c.09-.45.2-.87.31-1.26s.23-.77.33-1.12l3.37-10.87a1.5,1.5,0,0,1,.56-.74,1.61,1.61,0,0,1,1-.35h1.43a1.82,1.82,0,0,1,1,.3,1.46,1.46,0,0,1,.57.78l3.34,10.87c.11.33.22.69.33,1.07a11.89,11.89,0,0,1,.3,1.21c.08-.42.16-.82.24-1.21s.16-.73.25-1.06l2.86-10.87a1.33,1.33,0,0,1,.54-.75,1.7,1.7,0,0,1,1-.34Z"/><path class="cls-2" d="M144.4,24.49a2.24,2.24,0,0,0-4,1.9h0l-2.2,1.27a1.06,1.06,0,0,0-.7-.24,1.18,1.18,0,0,0-.75.27h0l-13.75-8s0-.08,0-.12a1.17,1.17,0,0,0-2.34,0s0,0,0,.06l-3,1.69V18a1.16,1.16,0,0,0-.41-2.25,1.1,1.1,0,0,0-.55.15L103.12,8.06s0-.05,0-.08a1.17,1.17,0,0,0-.77-1.09V4.45a2.24,2.24,0,1,0-.8,0V6.89a1.16,1.16,0,0,0-.74,1L86.65,16a1.16,1.16,0,1,0-1,2.07v3.32l-2.81-1.63s0-.08,0-.12a1.17,1.17,0,1,0-2.34,0s0,0,0,.06L66.73,27.61a1.12,1.12,0,0,0-.64-.19,1.11,1.11,0,0,0-.77.3l-2-1.2h0a2.24,2.24,0,1,0-.42.72h0l2.07,1.21a.66.66,0,0,0,0,.15,1.16,1.16,0,0,0,.44.91l.06,0a1.18,1.18,0,0,0,.66.21h.14a1,1,0,0,0,.57-.22l20.5,12h0a2.45,2.45,0,0,0-.11.41v0a.22.22,0,0,0,0,.09,1.91,1.91,0,0,0,0,.63.76.76,0,0,0,0,.16h29.19c.06-.69.09-.62.09-.78s0-.06,0-.08a4.13,4.13,0,0,0-.13-.61v0l20.35-11.85a.67.67,0,0,0,.32.18l.05,0a.91.91,0,0,0,.41.08.93.93,0,0,0,.32-.05h.07a1.18,1.18,0,0,0,.77-1.1.83.83,0,0,0,0-.22v0l2.17-1.26h0a2.24,2.24,0,0,0,3.63-2.6ZM91.64,42s0-.07,0-.09v-.07a2.21,2.21,0,0,0-1.09-1.57,2.24,2.24,0,0,0-2.83.47h0L67.25,28.84a1.94,1.94,0,0,0,0-.24.72.72,0,0,0-.07-.33h0l13.66-7.84a1.16,1.16,0,0,0,1.64,0l3.16,1.83V34a1.14,1.14,0,0,0-.79,1.09A1.17,1.17,0,0,0,86,36.3a1.2,1.2,0,0,0,.67-.23l10.42,5.61.07,0V42Zm5.56-12.3v11l-.07,0-10-5.37a.93.93,0,0,0,0-.24A1.16,1.16,0,0,0,86.46,34V22.76l9.75,5.64a1.62,1.62,0,0,0,0,.19A1.17,1.17,0,0,0,97.2,29.74ZM99.47,42l-.18-.1,0,0-1-.53L98,41.21V29.54a1.16,1.16,0,0,0-.66-2.12,1.1,1.1,0,0,0-.72.28L86.46,21.83V18A1.15,1.15,0,0,0,87.21,17a1.07,1.07,0,0,0-.06-.32l13.88-8a1.15,1.15,0,0,0,.53.42V32.52a2.24,2.24,0,0,0,0,4.41V42Zm2.89,0V36.93a2.24,2.24,0,0,0,0-4.41V9.08a1.21,1.21,0,0,0,.43-.27l13.4,7.75a1.35,1.35,0,0,0-.08.4,1.16,1.16,0,0,0,.8,1.09v3.78l-10.09,5.79a1.14,1.14,0,0,0-1.79,1,1.15,1.15,0,0,0,.93,1.12V41.24l-.22.13-.89.53,0,0-.16.1Zm14.55-8a1.15,1.15,0,0,0-.8,1.09,1,1,0,0,0,0,.18h0l-9.32,5.42-.06,0V29.61a1.16,1.16,0,0,0,.63-1,1.23,1.23,0,0,0-.07-.32l9.6-5.51Zm-1,6.6h0a2.22,2.22,0,0,0-2.81-.45A2.28,2.28,0,0,0,112,42a.21.21,0,0,0,0,.08h-5.25v-.33l.06,0L116.53,36h0a1.17,1.17,0,1,0,1.16-2V22.31L121,20.43a1.16,1.16,0,0,0,1.64,0l13.69,7.92h0a.71.71,0,0,0,0,.21.86.86,0,0,0,0,.16Z"/><path class="cls-1" d="M61.19,66.35a9.2,9.2,0,0,1-1.37,1.2,8,8,0,0,1-1.62.92,9.26,9.26,0,0,1-1.93.58,11.05,11.05,0,0,1-2.31.22,9.86,9.86,0,0,1-3.85-.74,8.49,8.49,0,0,1-3-2.09,9.37,9.37,0,0,1-2-3.27,12.2,12.2,0,0,1-.7-4.26,11.79,11.79,0,0,1,.72-4.2,9.52,9.52,0,0,1,2-3.26,9,9,0,0,1,3.13-2.12,10.43,10.43,0,0,1,4-.75,11.49,11.49,0,0,1,2,.16,8.83,8.83,0,0,1,1.7.48,7.55,7.55,0,0,1,1.5.76A12,12,0,0,1,61,51l-.44.64a.42.42,0,0,1-.36.17.62.62,0,0,1-.33-.15l-.5-.37q-.32-.22-.75-.48a6.19,6.19,0,0,0-1-.49A8.7,8.7,0,0,0,56.15,50a9.65,9.65,0,0,0-1.79-.15,8.9,8.9,0,0,0-3.39.63,7.56,7.56,0,0,0-2.65,1.82,8.17,8.17,0,0,0-1.74,2.86A10.63,10.63,0,0,0,46,58.91a11.21,11.21,0,0,0,.61,3.84,8.41,8.41,0,0,0,1.7,2.85,7.42,7.42,0,0,0,2.57,1.78,8.06,8.06,0,0,0,3.21.63A11.13,11.13,0,0,0,56,67.86a8,8,0,0,0,1.57-.42,7.34,7.34,0,0,0,1.33-.71,9.52,9.52,0,0,0,1.21-1l.14-.09a.24.24,0,0,1,.15,0,.35.35,0,0,1,.24.1Z"/><path class="cls-1" d="M83.14,54.68a9.43,9.43,0,0,0-2-3.27,8.4,8.4,0,0,0-3-2.09,10,10,0,0,0-3.93-.74,10.07,10.07,0,0,0-3.9.74,8.85,8.85,0,0,0-3.05,2.1,9.38,9.38,0,0,0-2,3.26,13,13,0,0,0,0,8.49,9.47,9.47,0,0,0,2,3.26,8.67,8.67,0,0,0,3.05,2.08,10.73,10.73,0,0,0,7.83,0,8.63,8.63,0,0,0,3-2.08,9.47,9.47,0,0,0,2-3.26,13.22,13.22,0,0,0,0-8.49Zm-1.4,8a8.18,8.18,0,0,1-1.66,2.85,6.8,6.8,0,0,1-2.56,1.78,9.17,9.17,0,0,1-6.63,0,7.08,7.08,0,0,1-2.57-1.78,8,8,0,0,1-1.67-2.85,12.4,12.4,0,0,1,0-7.62,8,8,0,0,1,1.67-2.85,7.13,7.13,0,0,1,2.57-1.8,9.17,9.17,0,0,1,6.63,0,6.84,6.84,0,0,1,2.56,1.8,8.09,8.09,0,0,1,1.66,2.85,12.8,12.8,0,0,1,0,7.62Z"/><path class="cls-1" d="M96.23,60.64,96,60.37a2.53,2.53,0,0,0-.61-.65,8.3,8.3,0,0,0,2.39-.61,6,6,0,0,0,1.8-1.18,4.93,4.93,0,0,0,1.16-1.67,5.2,5.2,0,0,0,.39-1.79c0-.11,0-.2,0-.31a4.65,4.65,0,0,0-1.73-3.92C98.26,49.33,96.53,49,94.18,49H89.11V69.2H90.3V60.07h2.82a2.17,2.17,0,0,1,.87.06,1.17,1.17,0,0,1,.53.35l.29.37L101,68.71a1.71,1.71,0,0,0,.33.33.87.87,0,0,0,.39.16H103Zm-2.25-1H90.26V50.15h4.41a6.27,6.27,0,0,1,3.63,1,3.53,3.53,0,0,1,1.41,3.1c0,.18,0,.36,0,.52v.08a4.7,4.7,0,0,1-.39,2,4.58,4.58,0,0,1-1.13,1.54,5.48,5.48,0,0,1-1.79,1A7.48,7.48,0,0,1,94,59.68Z"/><path class="cls-1" d="M117.65,50.44c-1.21-1-3-1.48-5.37-1.48H107V69.21h1.59V60.87h3.71a9.28,9.28,0,0,0,3-.44,6.57,6.57,0,0,0,2.26-1.24A5.4,5.4,0,0,0,119,57.27a6,6,0,0,0,.49-2.42A5.47,5.47,0,0,0,117.65,50.44Zm0,6.32a4.66,4.66,0,0,1-1.13,1.55,5.29,5.29,0,0,1-1.79,1,7.22,7.22,0,0,1-2.41.36h-3.71V50.15h3.71a6.38,6.38,0,0,1,4.28,1.16,4.33,4.33,0,0,1,1.44,3.5A4.85,4.85,0,0,1,117.61,56.76Z"/><path class="cls-1" d="M10.49,48.16V61.49c0,.21,0,.41,0,.62A11.09,11.09,0,0,1,10,64.66a6.71,6.71,0,0,1-1.35,2.45A6.05,6.05,0,0,1,6.4,68.7a8.06,8.06,0,0,1-3.13.57c-.55,0-1.09,0-1.61-.09A12.86,12.86,0,0,1,0,68.89l.26-2.81a.79.79,0,0,1,.29-.6,1.06,1.06,0,0,1,.74-.23,3.1,3.1,0,0,1,.6.08,4.16,4.16,0,0,0,.85.07A3.53,3.53,0,0,0,4,65.21a1.93,1.93,0,0,0,.86-.64,3,3,0,0,0,.42-1.18,8.3,8.3,0,0,0,.08-1.8V48.16Z"/><path class="cls-1" d="M10.49,48.16V59.9c0,.21,0,.42,0,.62a9.23,9.23,0,0,1-1.18.08,9.06,9.06,0,0,1-4-.9V48.16Z"/><path class="cls-1" d="M10.49,48.16v8.32a9.11,9.11,0,0,1-4.78,1.34H5.33V48.16Z"/><path class="cls-1" d="M10.49,48.16v8A9,9,0,0,1,5.33,54V48.16Z"/><path class="cls-1" d="M60.62,65.73l.57.62a9.2,9.2,0,0,1-1.37,1.2,8,8,0,0,1-1.62.92,9.26,9.26,0,0,1-1.93.58,11.05,11.05,0,0,1-2.31.22,9.86,9.86,0,0,1-3.85-.74,8.49,8.49,0,0,1-3-2.09,9.37,9.37,0,0,1-2-3.27,12.2,12.2,0,0,1-.7-4.26,11.79,11.79,0,0,1,.72-4.2,9.52,9.52,0,0,1,2-3.26,9,9,0,0,1,3.13-2.12,10.43,10.43,0,0,1,4-.75,11.49,11.49,0,0,1,2,.16,8.83,8.83,0,0,1,1.7.48,7.55,7.55,0,0,1,1.5.76A12,12,0,0,1,61,51l-.44.64a.42.42,0,0,1-.36.17.62.62,0,0,1-.33-.15l-.5-.37q-.32-.22-.75-.48a6.19,6.19,0,0,0-1-.49A8.7,8.7,0,0,0,56.15,50a9.65,9.65,0,0,0-1.79-.15,8.9,8.9,0,0,0-3.39.63,7.56,7.56,0,0,0-2.65,1.82,8.17,8.17,0,0,0-1.74,2.86A10.63,10.63,0,0,0,46,58.91a11.21,11.21,0,0,0,.61,3.84,8.41,8.41,0,0,0,1.7,2.85,7.42,7.42,0,0,0,2.57,1.78,8.06,8.06,0,0,0,3.21.63A11.13,11.13,0,0,0,56,67.86a8,8,0,0,0,1.57-.42,7.34,7.34,0,0,0,1.33-.71,9.52,9.52,0,0,0,1.21-1l.14-.09a.24.24,0,0,1,.15,0A.35.35,0,0,1,60.62,65.73Z"/><path class="cls-1" d="M83.14,54.68a9.43,9.43,0,0,0-2-3.27,8.4,8.4,0,0,0-3-2.09,10,10,0,0,0-3.93-.74,10.07,10.07,0,0,0-3.9.74,8.85,8.85,0,0,0-3.05,2.1,9.38,9.38,0,0,0-2,3.26,13,13,0,0,0,0,8.49,9.47,9.47,0,0,0,2,3.26,8.67,8.67,0,0,0,3.05,2.08,10.73,10.73,0,0,0,7.83,0,8.63,8.63,0,0,0,3-2.08,9.47,9.47,0,0,0,2-3.26,13.22,13.22,0,0,0,0-8.49Zm-1.4,8a8.18,8.18,0,0,1-1.66,2.85,6.8,6.8,0,0,1-2.56,1.78,9.17,9.17,0,0,1-6.63,0,7.08,7.08,0,0,1-2.57-1.78,8,8,0,0,1-1.67-2.85,12.4,12.4,0,0,1,0-7.62,8,8,0,0,1,1.67-2.85,7.13,7.13,0,0,1,2.57-1.8,9.17,9.17,0,0,1,6.63,0,6.84,6.84,0,0,1,2.56,1.8,8.09,8.09,0,0,1,1.66,2.85,12.8,12.8,0,0,1,0,7.62Z"/><path class="cls-1" d="M96.23,60.64,96,60.37a2.53,2.53,0,0,0-.61-.65,8.3,8.3,0,0,0,2.39-.61,6,6,0,0,0,1.8-1.18,4.93,4.93,0,0,0,1.16-1.67,5.2,5.2,0,0,0,.39-1.79c0-.11,0-.2,0-.31a4.65,4.65,0,0,0-1.73-3.92C98.26,49.33,96.53,49,94.18,49H89.11V69.2H90.3V60.07h2.82a2.17,2.17,0,0,1,.87.06,1.17,1.17,0,0,1,.53.35l.29.37L101,68.71a1.71,1.71,0,0,0,.33.33.87.87,0,0,0,.39.16H103Zm-2.25-1H90.26V50.15h4.41a6.27,6.27,0,0,1,3.63,1,3.53,3.53,0,0,1,1.41,3.1c0,.18,0,.36,0,.52v.08a4.7,4.7,0,0,1-.39,2,4.58,4.58,0,0,1-1.13,1.54,5.48,5.48,0,0,1-1.79,1A7.48,7.48,0,0,1,94,59.68Z"/><path class="cls-1" d="M117.65,50.44c-1.21-1-3-1.48-5.37-1.48H107V69.21h1.59V60.87h3.71a9.28,9.28,0,0,0,3-.44,6.57,6.57,0,0,0,2.26-1.24A5.4,5.4,0,0,0,119,57.27a6,6,0,0,0,.49-2.42A5.47,5.47,0,0,0,117.65,50.44Zm0,6.32a4.66,4.66,0,0,1-1.13,1.55,5.29,5.29,0,0,1-1.79,1,7.22,7.22,0,0,1-2.41.36h-3.71V50.15h3.71a6.38,6.38,0,0,1,4.28,1.16,4.33,4.33,0,0,1,1.44,3.5A4.85,4.85,0,0,1,117.61,56.76Z"/><path class="cls-1" d="M101.14,54.47a5.22,5.22,0,0,0-1.81-4c-1.16-1-2.87-1.47-5.15-1.5h-5.5V69.2h1.58V60.87H94l.83,0a8,8,0,0,0,1.42-.21,6.41,6.41,0,0,0,.75-.21,6.66,6.66,0,0,0,2.26-1.24,5.49,5.49,0,0,0,1.41-1.91,5.78,5.78,0,0,0,.5-2.43C101.15,54.72,101.15,54.59,101.14,54.47ZM94,59.68H90.26V50.15h4.41a6.27,6.27,0,0,1,3.63,1,3.53,3.53,0,0,1,1.41,3.1c0,.18,0,.36,0,.52v.08a4.7,4.7,0,0,1-.39,2,4.58,4.58,0,0,1-1.13,1.54,5.48,5.48,0,0,1-1.79,1A7.48,7.48,0,0,1,94,59.68Z"/><text class="cls-3" transform="translate(124.04 58.69) scale(0.98 1)">B<tspan class="cls-4" x="6.5" y="0">L</tspan><tspan class="cls-5" x="11.7" y="0">OC</tspan><tspan class="cls-6" x="26.93" y="0">K</tspan><tspan x="33.23" y="0">CHAIN</tspan></text><text/><path class="cls-1" d="M10.53,43.53a2.64,2.64,0,1,1-2.64-2.64A2.64,2.64,0,0,1,10.53,43.53Z"/><text class="cls-7" transform="translate(124.04 69.2) scale(1.24 1)">SO<tspan class="cls-8" x="12.64" y="0">L</tspan><tspan x="17.14" y="0">UTIONS</tspan></text></g></g></svg>